<?xml version="1.0" standalone="no"?>
<!DOCTYPE svg PUBLIC "-//W3C//DTD SVG 20010904//EN"
 "http://www.w3.org/TR/2001/REC-SVG-20010904/DTD/svg10.dtd">
<svg version="1.0" xmlns="http://www.w3.org/2000/svg"
 width="420.000000pt" height="420.000000pt" viewBox="0 0 420.000000 420.000000"
 preserveAspectRatio="xMidYMid meet">
<metadata>
Created by potrace 1.14, written by Peter Selinger 2001-2017
</metadata>
<g transform="translate(0.000000,420.000000) scale(0.100000,-0.100000)"
fill="#000000" stroke="none">
<path d="M2045 3866 c-56 -17 -116 -59 -149 -104 -15 -20 -69 -104 -121 -187
-51 -82 -142 -228 -202 -323 -59 -95 -115 -185 -124 -200 -9 -15 -99 -157
-199 -317 -100 -159 -191 -306 -202 -325 -11 -19 -28 -46 -38 -60 -38 -55
-743 -1187 -762 -1224 -61 -119 -60 -253 3 -383 51 -105 163 -189 285 -213 30
-5 650 -9 1594 -9 1680 0 1595 -2 1701 56 149 80 230 260 199 434 -14 77 -29
106 -139 281 -47 76 -90 146 -96 156 -5 10 -50 82 -100 160 -49 78 -94 150
-100 159 -11 19 -156 251 -242 386 -29 45 -56 88 -60 96 -6 14 -241 388 -288
461 -12 19 -94 150 -181 290 -88 140 -162 257 -166 258 -5 2 -8 8 -8 13 0 5
-17 35 -37 66 -21 32 -40 63 -43 69 -24 50 -231 363 -259 391 -67 67 -178 96
-266 69z m266 -951 c210 -335 289 -464 289 -470 0 -3 -110 -5 -245 -5 -135 0
-245 -4 -245 -8 0 -5 -28 -45 -62 -90 -35 -44 -112 -146 -172 -226 -60 -80
-112 -146 -116 -146 -6 0 -203 253 -224 287 -4 8 82 155 225 385 127 205 259
417 292 471 33 54 64 96 68 95 5 -2 90 -133 190 -293z"/>
</g>
</svg>
